<svg xmlns="http://www.w3.org/2000/svg" viewBox="0 0 150 135">
<!-- SVG created with Arrow, by QuiverAI (https://quiver.ai) -->
  <style type="text/css">.cls-0 {fill:#0e3640;}
.cls-1 {fill:url(#SVGID_1_);}
.cls-2 {fill:url(#SVGID_2_);}
.cls-3 {fill:url(#SVGID_3_);}
.cls-4 {fill:url(#SVGID_4_);}
.cls-5 {fill:url(#SVGID_5_);}
.cls-6 {fill:url(#SVGID_6_);}
.cls-7 {fill:url(#SVGID_7_);}
.cls-8 {fill:url(#SVGID_8_);}</style>
  <linearGradient id="SVGID_1_" x1="2.421" x2="113.4" y1="86.19" y2="86.19" gradientUnits="userSpaceOnUse">
    <stop stop-color="#d8e8e6" offset="0"/>
    <stop stop-color="#80a8a5" offset="1"/>
  </linearGradient>
  <polygon class="cls-1" points="2.4 110.9 2.4 124.6 47.9 75.3 67.7 94.5 112.8 47.3 115.4 54.1 120.3 48.3 118.3 39.4 127.7 29.3 127.1 27.8 121.8 24.4 112 33.7 99.7 34.8 97.6 36.4 106.7 39.8 67.7 81.2 48.1 61.9"/>
  <linearGradient id="SVGID_2_" x1="3.632" x2="112.7" y1="90.41" y2="90.41" gradientUnits="userSpaceOnUse">
    <stop stop-color="#0e3640" offset="0"/>
    <stop stop-color="#80a8a5" offset=".4944"/>
    <stop stop-color="#bcd2cf" offset="1"/>
  </linearGradient>
  <polygon class="cls-2" points="3 111.3 3 122.6 29.2 93.9 42.2 69.3 48.1 62.8 67.7 82 83.8 65.5 107.2 40.1 110.6 40.4 112.7 46.2 67.7 93.4 48 74.2"/>
  <linearGradient id="SVGID_3_" x1="55.96" x2="60.07" y1="80.91" y2="73.52" gradientUnits="userSpaceOnUse">
    <stop stop-color="#4d8285" offset="0"/>
    <stop stop-color="#bcd2cf" offset="1"/>
  </linearGradient>
  <polygon class="cls-3" points="56.2 81.7 59.6 74.7 67.7 82 68.2 82.3 75.5 75.1 84 65.9 107.7 40.5 81.9 74.2 67.7 87.2"/>
  <linearGradient id="SVGID_4_" x1="2.884" x2="135.2" y1="103" y2="103" gradientUnits="userSpaceOnUse">
    <stop stop-color="#d8e8e6" offset="0"/>
    <stop stop-color="#4d8285" offset=".25"/>
    <stop stop-color="#0e3640" offset=".5"/>
    <stop stop-color="#1a4a52" offset=".75"/>
    <stop stop-color="#f3eee0" offset="1"/>
  </linearGradient>
  <path class="cls-4" d="m2.9 132.6 45.2-49.1 19.6 20.4 44.7-47.1 2.2 3 12.3-18.4 8.3 15v76.2z"/>
  <linearGradient id="SVGID_5_" x1="24.78" x2="39.55" y1="116.4" y2="106.8" gradientUnits="userSpaceOnUse">
    <stop stop-color="#072530" offset="0"/>
    <stop stop-color="#0e3640" offset=".4944"/>
    <stop stop-color="#031820" offset="1"/>
  </linearGradient>
  <polygon class="cls-5" points="25.4 108.2 25.4 132.3 32.4 132.3 47.2 100.2 47.9 84.5"/>
  <linearGradient id="SVGID_6_" x1="47.27" x2="69.06" y1="110.4" y2="110.4" gradientUnits="userSpaceOnUse">
    <stop stop-color="#1a4a52" offset="0"/>
    <stop stop-color="#1a4a52" offset="1"/>
  </linearGradient>
  <polygon class="cls-6" points="47.3 84.8 47.3 132.3 69.1 132.3 69.1 103.1 67.6 104.6"/>
  <linearGradient id="SVGID_7_" x1="69.06" x2="90.85" y1="99.71" y2="99.71" gradientUnits="userSpaceOnUse">
    <stop stop-color="#bcd2cf" offset="0"/>
    <stop stop-color="#4d8285" offset="1"/>
  </linearGradient>
  <polygon class="cls-7" points="69.1 103.1 69.1 132.3 90.8 132.3 90.8 79.8"/>
  <linearGradient id="SVGID_8_" x1="90.85" x2="112.8" y1="96.89" y2="96.89" gradientUnits="userSpaceOnUse">
    <stop stop-color="#072530" offset="0"/>
    <stop stop-color="#031820" offset="1"/>
  </linearGradient>
  <polygon class="cls-8" points="90.8 79.8 90.8 132.2 112.8 132.2 112.8 57.6"/>
  <linearGradient id="SVGID_9_" x1="112.7" x2="134.7" y1="86.59" y2="86.59" gradientUnits="userSpaceOnUse">
    <stop stop-color="#2d5e63" offset="0"/>
    <stop stop-color="#80a8a5" offset="1"/>
  </linearGradient>
  <polygon points="112.7 70.1 112.7 132.2 134.7 132.2 134.7 56.4 127 41.4" fill="url(#SVGID_9_)"/>
  <linearGradient id="SVGID_10_" x1="25.66" x2="52.67" y1="108" y2="108" gradientUnits="userSpaceOnUse">
    <stop stop-color="#2d5e63" offset="0"/>
    <stop stop-color="#d8e8e6" offset=".4944"/>
    <stop stop-color="#ecdfc0" offset="1"/>
  </linearGradient>
  <polygon points="25.7 132.2 41.7 95.1 42.9 89.2 48 83.9 52.7 88.7 32.5 132.2" fill="url(#SVGID_10_)"/>
  <linearGradient id="SVGID_11_" x1="84.51" x2="96.72" y1="66.98" y2="58.99" gradientUnits="userSpaceOnUse">
    <stop stop-color="#4d8285" offset="0"/>
    <stop stop-color="#e5efed" offset=".4944"/>
    <stop stop-color="#bcd2cf" offset="1"/>
  </linearGradient>
  <path d="m79.7 78 18.6-27.1 9.4-10.4-23.8 25.5-0.9 0.4-3.3 3.7z" fill="url(#SVGID_11_)"/>
  <linearGradient id="SVGID_12_" x1="54.05" x2="134.7" y1="104.3" y2="104.3" gradientUnits="userSpaceOnUse">
    <stop stop-color="#1a4a52" stop-opacity="0" offset="0"/>
    <stop stop-color="#f3eee0" offset=".4944"/>
    <stop stop-color="#1a4a52" stop-opacity="0" offset="1"/>
  </linearGradient>
  <polygon points="54 132.2 134.7 67.8 134.7 69.9 69.1 121.6 62.6 126.4 56.5 132.2" fill="url(#SVGID_12_)"/>
  <linearGradient id="SVGID_13_" x1="102" x2="147.9" y1="27.52" y2="27.52" gradientUnits="userSpaceOnUse">
    <stop stop-color="#e5efed" offset="0"/>
    <stop stop-color="#ecdfc0" offset=".4944"/>
    <stop stop-color="#d4a574" offset="1"/>
  </linearGradient>
  <path d="m101.9 13.5 4.7-4.2 24.1 5.1 8.1-8.6c2.5-2.5 6.9-2.8 9.1-3.1-0.3 3.1-0.3 6.5-2.7 9.3l-7.7 9 5 22.9-4.4 5.9-10.5-19.5-9.3 9.1 2 8.8-4.9 5.9-2.6-6.9-45.1 47.3-19.8-19.2-45.5 49.3v-13.7l45.7-49 19.6 19.3 39-41.4-9.1-3.4 4.4-4.2 9.9 1.5 9.1-9.3z" fill="url(#SVGID_13_)"/>
  <linearGradient id="SVGID_14_" x1="103.3" x2="147" y1="30.92" y2="30.92" gradientUnits="userSpaceOnUse">
    <stop stop-color="#bcd2cf" offset="0"/>
    <stop stop-color="#80a8a5" offset=".4944"/>
    <stop stop-color="#2d5e63" offset="1"/>
  </linearGradient>
  <path d="m103.3 13.4 3.6-3.1 24.3 5 8.3-9.2c1.7-1.8 5-2.4 7.5-2.8-0.2 2.6-0.4 5.8-2 7.7l-8.4 9.9 5 22.8-3.3 4.6-10.5-19.3-10.4 10.4 2 8.5-3.7 4.7-4.5-12.3-12.3-4.2 3.3-3.1 10 1.4 10-10.3z" fill="url(#SVGID_14_)"/>
</svg>